PathFileType	4	(X/Y/Z)	E:\Qualisys_Data\Carbon_Farble_Plate\Data\Amateur_Runner\S14\T3\S14T3V23_c3d.trc
DataRate	CameraRate	NumFrames	NumMarkers	Units	OrigDataRate	OrigDataStartFrame	OrigNumFrames
200.000000	200.000000	4	39	mm	200.000000	143	286
Frame#	Time	LSHO			RSHO			LICST			RICST			LASIS			LHEEL			RASIS			LTROC			RTROC			SACR			LTH1			LSK4			LTH2			LTH3			RHM5			LSK2			LTH4			RTH1			LTOE			RTH2			RTH3			RTH4			LLEP			RLEP			LSK1			LSK3			RSK1			LHM5			RSK2			LFT1			RSK3			RSK4			LLME			RLME			RTOE			RHEEL			RFT1			RFT2			LFT2			
		X1	Y1	Z1	X2	Y2	Z2	X3	Y3	Z3	X4	Y4	Z4	X5	Y5	Z5	X6	Y6	Z6	X7	Y7	Z7	X8	Y8	Z8	X9	Y9	Z9	X10	Y10	Z10	X11	Y11	Z11	X12	Y12	Z12	X13	Y13	Z13	X14	Y14	Z14	X15	Y15	Z15	X16	Y16	Z16	X17	Y17	Z17	X18	Y18	Z18	X19	Y19	Z19	X20	Y20	Z20	X21	Y21	Z21	X22	Y22	Z22	X23	Y23	Z23	X24	Y24	Z24	X25	Y25	Z25	X26	Y26	Z26	X27	Y27	Z27	X28	Y28	Z28	X29	Y29	Z29	X30	Y30	Z30	X31	Y31	Z31	X32	Y32	Z32	X33	Y33	Z33	X34	Y34	Z34	X35	Y35	Z35	X36	Y36	Z36	X37	Y37	Z37	X38	Y38	Z38	X39	Y39	Z39	

144	0.715	101.5079650878906	1419.366455078125	-497.6452026367188	44.12914657592773	1421.469116210938	-207.481689453125	32.8897819519043	971.6731567382812	-486.4007263183594	46.11193466186523	977.6056518554688	-210.8874359130859	69.21878814697266	920.0435180664062	-464.8318176269531	-536.2156372070312	523.5162353515625	-364.3295288085938	73.89037322998047	936.5275268554688	-232.3830718994141	-79.21668243408203	868.9623413085938	-512.4305419921875	-55.73961639404297	851.0164184570312	-177.2503051757812	-100.8875427246094	975.3727416992188	-356.3476867675781	-72.09037780761719	632.0034790039062	-509.4301452636719	-360.5542602539062	514.055419921875	-456.90478515625	-147.4817962646484	650.753662109375	-483.7197875976562	-89.03654479980469	534.6451416015625	-492.3529052734375	389.08642578125	114.9186248779297	-200.7471313476562	-264.9450073242188	523.3682861328125	-482.1359252929688	-165.7923736572266	554.2399291992188	-470.8569030761719	148.7341918945312	686.3496704101562	-179.9015960693359	-600.0410766601562	268.5317993164062	-389.2890625	75.78746032714844	654.190185546875	-172.8677520751953	189.3108825683594	600.5676879882812	-214.9159088134766	114.5354461669922	563.5112915039062	-198.7618255615234	-164.4190521240234	495.8621520996094	-490.2591857910156	166.0606994628906	511.7054443359375	-206.0004119873047	-255.1530151367188	441.5034484863281	-479.4780883789062	-354.59619140625	433.0817565917969	-456.7373962402344	216.43994140625	396.7047729492188	-202.9031066894531	-609.2550659179688	342.3724670410156	-445.7497253417969	134.2166137695312	373.4768981933594	-203.7754669189453	-561.7584228515625	514.4578857421875	-335.5448608398438	238.0062103271484	296.142578125	-214.9300384521484	160.8962860107422	281.5842895507812	-214.4521789550781	-526.5665283203125	465.9814147949219	-425.6304931640625	245.2569274902344	115.5793228149414	-234.3411560058594	445.5066833496094	168.4750671386719	-264.1019287109375	209.3778533935547	64.45146179199219	-291.5	233.9758605957031	46.65108871459961	-320.8108520507812	215.9500427246094	41.8093147277832	-270.326904296875	-565.4398193359375	528.3130493164062	-385.0672607421875
145	0.72	122.0462417602539	1415.041625976562	-497.4407043457031	66.24137115478516	1416.667358398438	-206.9415893554688	54.11245346069336	967.7921752929688	-486.3518981933594	66.44749450683594	973.9883422851562	-210.3119201660156	90.52947235107422	916.18798828125	-464.4905700683594	-504.7420043945312	528.7899169921875	-363.4476928710938	94.54846954345705	933.1742553710938	-231.7157135009766	-57.27852630615234	863.5047607421875	-512.3101806640625	-35.28988647460938	847.1719360351562	-177.6713104248047	-79.53094482421875	971.1503295898438	-357.0802001953125	-46.79692840576172	626.520751953125	-510.6385192871094	-329.9886474609375	513.1508178710938	-457.8089904785156	-122.0461349487305	643.5830688476562	-483.6643676757812	-61.57260131835938	528.7069091796875	-493.8338928222656	402.1412048339844	105.0412368774414	-204.5525970458984	-234.2622833251953	519.581787109375	-484.0415344238281	-138.2193908691406	546.7710571289062	-471.8580627441406	170.7628936767578	682.3364868164062	-179.8528289794922	-573.7291259765625	275.2835083007812	-388.5443420410156	97.39004516601562	651.3456420898438	-174.6933441162109	211.0574340820312	595.762939453125	-214.6436004638672	135.1976165771484	559.794189453125	-200.0985260009766	-135.4044036865234	489.7997131347656	-492.4057312011719	185.7462463378906	507.1171264648438	-206.2756500244141	-226.6830139160156	437.2811584472656	-480.638671875	-325.823974609375	431.9324340820312	-456.6105346679688	235.390380859375	391.5099792480469	-203.8216552734375	-581.2241821289062	348.9515380859375	-444.8575439453125	152.7086029052734	369.5338439941406	-203.1644439697266	-530.5616455078125	519.7380981445312	-335.0874328613281	255.2449035644531	290.3710021972656	-216.1151733398438	177.9350433349609	277.1054077148438	-214.8319702148438	-496.6867980957031	470.97900390625	-425.0478515625	259.1844787597656	110.2774353027344	-235.3269805908203	460.7874755859375	154.7297973632812	-269.9077453613281	218.9793548583984	67.32844543457031	-292.1329040527344	240.59326171875	46.25347900390625	-321.3772277832031	224.0088043212891	44.07902145385742	-270.2655029296875	-534.07470703125	534.239501953125	-384.77197265625
146	0.725	142.3228454589844	1410.750732421875	-497.2586059570312	88.85552978515625	1411.942016601562	-206.1767578125	75.59075927734375	962.9990234375	-486.9229431152344	87.33477783203125	970.4221801757812	-209.4897613525391	111.9461517333984	912.1599731445312	-464.2398071289062	-470.3051147460938	531.7962036132812	-363.2774353027344	115.4810256958008	929.7659301757812	-231.1515197753906	-35.29536819458008	858.0827026367188	-512.7539672851562	-14.63249588012695	843.0716552734375	-178.2842254638672	-58.4879264831543	966.5742797851562	-357.3738098144531	-20.83536529541016	620.899169921875	-511.6455078125	-298.7127380371094	512.0601196289062	-458.8912963867188	-96.28211975097656	636.2568359375	-483.9883117675781	-33.43886184692383	522.531982421875	-495.3809814453125	412.3096923828125	90.88775634765624	-208.0502624511719	-203.0285186767578	515.6256103515625	-485.6126708984375	-110.5820465087891	539.1990356445312	-472.9631652832031	191.2662353515625	676.59326171875	-179.9999389648438	-546.3237915039062	281.1304626464844	-388.1607055664062	118.8694458007812	647.4035034179688	-176.4258880615234	231.1516418457031	590.119140625	-215.3679809570312	156.1595916748047	555.853759765625	-200.7499237060547	-104.9010848999023	482.6326904296875	-494.8679504394531	205.9166107177734	502.2518920898438	-206.1783752441406	-197.8549041748047	433.2998352050781	-481.8811340332031	-296.9981689453125	430.8514709472656	-457.1982421875	254.2728729248047	386.0576782226562	-204.8695983886719	-552.8613891601562	355.5674743652344	-444.8614196777344	170.6550750732422	365.8871154785156	-201.9599151611328	-498.2273254394531	525.657470703125	-333.9053039550781	272.1271362304688	284.3624877929688	-217.4897308349609	194.26708984375	272.6515197753906	-214.7124481201172	-465.8712768554688	475.5731201171875	-424.5387573242188	271.7599487304688	104.8567962646484	-236.3135375976562	473.7897644042969	136.7014007568359	-273.9592895507812	227.0355834960938	69.1080551147461	-293.0729370117188	245.7994995117188	45.62736511230469	-321.7383117675781	229.7884063720703	45.11888122558594	-270.9429931640625	-502.0257568359375	539.11572265625	-383.9690551757812
147	0.73	162.3076629638672	1406.141723632812	-497.2542724609375	111.1516494750977	1406.886596679688	-205.5559539794922	96.1193618774414	959.0291748046876	-486.6124572753906	107.9121322631836	966.8370361328124	-209.3125152587891	133.2621002197266	908.0870971679688	-464.1596984863281	-438.0059204101562	536.0256958007812	-362.7268676757812	136.6473083496094	926.7205200195312	-230.8383483886719	-13.42430973052979	852.1243286132812	-512.7229614257812	6.367153167724609	838.8196411132812	-179.2850036621094	-37.78722381591797	961.46533203125	-357.8844909667969	5.519379138946533	615.3604736328125	-512.4512939453125	-266.8522338867188	510.8450317382812	-459.8208618164062	-70.3134536743164	629.042724609375	-484.7715148925781	-5.046807765960693	516.542724609375	-497.0078735351562	421.1397094726562	74.56552124023438	-210.8856658935547	-171.7401123046875	511.7915649414062	-487.2331237792969	-82.45693969726562	531.2063598632812	-474.1632690429688	213.1345825195312	671.1633911132812	-180.0579681396484	-517.9104614257812	286.6092834472656	-387.9063720703125	140.3958282470703	643.3425903320312	-177.5199127197266	252.1437225341797	584.7462158203125	-215.4515533447266	176.577880859375	551.083251953125	-201.4224090576172	-74.89521789550781	476.6453552246094	-496.9757385253906	226.002685546875	497.5552978515625	-206.1292877197266	-168.7911376953125	429.3601379394531	-482.7915344238281	-267.7395324707031	429.3018493652344	-457.2476501464844	273.3757629394531	380.8382263183594	-206.1664123535156	-523.3446044921875	360.8737487792969	-444.0457763671875	189.9498291015625	362.3534545898438	-201.6906585693359	-466.2279357910156	530.1846923828125	-332.9425048828125	288.5906066894531	279.0486450195312	-219.0632629394531	210.7460784912109	268.8449401855469	-214.4926910400391	-434.4512634277344	479.5420532226562	-424.5941772460938	281.6346435546875	100.567756652832	-236.4802093505859	486.1246948242188	115.0000762939453	-276.6802062988281	234.1466217041016	68.16297149658203	-293.6546020507812	250.3728179931641	43.70223617553711	-322.7621154785156	234.4101257324219	45.71821975708008	-271.4924011230469	-469.4715576171875	543.7864990234375	-383.4962768554688
